<svg id="svg" xmlns="http://www.w3.org/2000/svg" xmlns:xlink="http://www.w3.org/1999/xlink" width="400" height="400" viewBox="0, 0, 400,400"><g id="svgg"><path id="path0" d="M151.563 51.148 C 54.958 65.111,-11.282 151.918,1.195 248.202 C 8.006 300.767,39.667 348.773,85.328 375.770 C 92.609 380.074,97.487 382.172,93.071 379.099 C 39.669 341.938,15.137 278.647,29.404 214.844 C 57.089 91.036,205.302 59.509,273.642 162.891 C 284.560 179.407,297.656 213.010,297.656 224.508 C 297.656 224.779,286.934 225.000,273.828 225.000 C 260.723 225.000,250.000 225.180,250.000 225.400 C 250.000 226.163,324.343 312.500,325.000 312.500 C 325.657 312.500,400.000 226.163,400.000 225.400 C 400.000 225.180,388.802 225.000,375.116 225.000 L 350.232 225.000 349.771 214.258 C 346.617 140.678,292.168 73.991,220.190 55.553 C 199.959 50.370,170.170 48.458,151.563 51.148 " stroke="none" fill="#000000" fill-rule="evenodd"></path></g></svg>